<?xml version="1.0" encoding="utf-8"?>
<!-- Generator: Adobe Illustrator 16.0.0, SVG Export Plug-In . SVG Version: 6.00 Build 0)  -->
<!DOCTYPE svg PUBLIC "-//W3C//DTD SVG 1.1//EN" "http://www.w3.org/Graphics/SVG/1.1/DTD/svg11.dtd">
<svg version="1.1"
	 id="svg3074" sodipodi:docname="logo_mini_outline_bg.svg" inkscape:export-filename="/home/nuxsmin/DROP-DEV/RES/IMGS/sysPass/LOGOS/2018/logo_mini_outline_bg_round.png" inkscape:export-xdpi="576" inkscape:export-ydpi="576" inkscape:version="0.92.1 r15371" xmlns:dc="http://purl.org/dc/elements/1.1/" xmlns:cc="http://creativecommons.org/ns#" xmlns:rdf="http://www.w3.org/1999/02/22-rdf-syntax-ns#" xmlns:svg="http://www.w3.org/2000/svg" xmlns:sodipodi="http://sodipodi.sourceforge.net/DTD/sodipodi-0.dtd" xmlns:inkscape="http://www.inkscape.org/namespaces/inkscape"
	 xmlns="http://www.w3.org/2000/svg" xmlns:xlink="http://www.w3.org/1999/xlink" x="0px" y="0px" width="175px" height="175px"
	 viewBox="0 0 175 175" enable-background="new 0 0 175 175" xml:space="preserve">
<sodipodi:namedview  inkscape:pageopacity="0.0" fit-margin-bottom="0" inkscape:document-units="px" inkscape:window-width="1920" inkscape:window-maximized="1" inkscape:measure-start="85.2679,14.9107" inkscape:measure-end="84.8214,-0.0892857" inkscape:window-height="1030" inkscape:pageshadow="2" inkscape:window-x="1920" inkscape:window-y="27" inkscape:current-layer="layer2" fit-margin-right="0" id="base" pagecolor="#ffffff" bordercolor="#666666" borderopacity="1.0" inkscape:zoom="3.959798" inkscape:cx="52.265716" inkscape:cy="87.147817" showgrid="true" fit-margin-top="0" fit-margin-left="0">
	<inkscape:grid  type="xygrid" id="grid18"></inkscape:grid>
</sodipodi:namedview>
<g id="layer2" transform="translate(0,-11.666675)" inkscape:groupmode="layer" inkscape:label="BG full" display="none">

		<rect id="rect3844" x="0.106" y="11.667" display="inline" fill="#607D8B" stroke="#FFFFFF" stroke-width="0.2092" width="174.894" height="175"/>
</g>
<g id="layer1" transform="translate(-180.19038,-110.94823)" inkscape:groupmode="layer" inkscape:label="Capa 1">
	<g id="g3127" transform="translate(-1138.869,-174.44524)">

			<path id="path4152-7-7" inkscape:connector-curvature="0" inkscape:export-xdpi="280" inkscape:export-ydpi="280" fill="#bebebe" fill-opacity="1" stroke="#bebebe" stroke-width="1.7886" d="
			M1399.306,286.106c-21.642,0-39.192,16.038-39.192,35.813v33.019h-2.337c-8.701,0-15.756,5.738-15.756,12.796v78.993
			c0,7.059,7.055,12.775,15.756,12.775h97.4c8.701,0,15.756-5.718,15.756-12.775v-78.994c0-7.058-7.056-12.796-15.756-12.796h-2.338
			V321.92c0-19.776-17.551-35.812-39.191-35.812h-14.341V286.106z M1402.076,300.759h8.802c13.241,0,23.967,10.454,23.967,23.357
			v30.823h-56.735v-30.823C1378.109,311.213,1388.833,300.759,1402.076,300.759L1402.076,300.759z"/>
		<path id="path3041" inkscape:connector-curvature="0" fill="#FFFFFF" stroke="#FFFFFF" stroke-width="0.3243" d="
			M1356.283,404.516c-0.617-0.354-1.016-0.884-1.197-1.584c-0.181-0.703-0.097-1.368,0.251-1.993l1.288-2.251
			c0.35-0.629,0.868-1.034,1.56-1.217c0.69-0.184,1.344-0.099,1.961,0.256l5.352,3.126v-6.275c0-0.709,0.254-1.322,0.764-1.841
			c0.51-0.518,1.114-0.776,1.811-0.776h2.577c0.696,0,1.301,0.259,1.811,0.776c0.509,0.519,0.765,1.132,0.765,1.841v6.275
			l5.352-3.126c0.617-0.354,1.271-0.439,1.961-0.256c0.691,0.183,1.212,0.588,1.56,1.217l1.287,2.251
			c0.349,0.625,0.434,1.29,0.252,1.993c-0.18,0.7-0.58,1.229-1.196,1.584l-5.353,3.148l5.353,3.148
			c0.617,0.354,1.015,0.883,1.196,1.586c0.182,0.702,0.097,1.366-0.252,1.993l-1.287,2.25c-0.35,0.627-0.869,1.033-1.56,1.217
			c-0.69,0.183-1.343,0.098-1.961-0.257l-5.352-3.126v6.277c0,0.708-0.254,1.32-0.765,1.839c-0.51,0.519-1.113,0.777-1.811,0.777
			h-2.577c-0.698,0-1.301-0.259-1.811-0.777s-0.765-1.131-0.764-1.839v-6.277l-5.352,3.126c-0.616,0.354-1.271,0.439-1.961,0.257
			c-0.692-0.184-1.21-0.59-1.56-1.217l-1.288-2.25c-0.348-0.627-0.433-1.291-0.251-1.993c0.181-0.703,0.58-1.231,1.197-1.586
			l5.353-3.148L1356.283,404.516z"/>

			<path id="path3041-6" inkscape:connector-curvature="0" fill="#607D8B" fill-opacity="0.3333" stroke="#FFFFFF" stroke-width="0.3572" d="
			M1403.063,422.302c-0.384,0.692-0.956,1.139-1.717,1.34c-0.761,0.203-1.48,0.108-2.16-0.279l-2.438-1.442
			c-0.681-0.393-1.12-0.973-1.318-1.747c-0.199-0.772-0.107-1.504,0.277-2.195l3.39-5.99h-6.803c-0.769,0-1.433-0.285-1.995-0.856
			c-0.561-0.57-0.842-1.245-0.842-2.026v-2.882c0-0.781,0.28-1.457,0.842-2.027c0.561-0.571,1.226-0.856,1.995-0.856h6.803
			l-3.39-5.991c-0.384-0.69-0.476-1.421-0.277-2.194s0.639-1.355,1.318-1.745l2.438-1.441c0.679-0.39,1.399-0.484,2.16-0.281
			s1.334,0.647,1.717,1.34l3.413,5.988l3.413-5.988c0.385-0.692,0.955-1.137,1.716-1.34c0.76-0.203,1.48-0.108,2.16,0.281
			l2.437,1.441c0.682,0.39,1.121,0.972,1.318,1.745c0.198,0.773,0.107,1.504-0.277,2.194l-3.391,5.991h6.805
			c0.767,0,1.432,0.285,1.994,0.856c0.562,0.57,0.842,1.246,0.842,2.027v2.882c0,0.781-0.28,1.456-0.842,2.026
			c-0.561,0.571-1.228,0.856-1.994,0.856h-6.805l3.391,5.99c0.385,0.691,0.476,1.423,0.277,2.195
			c-0.197,0.774-0.639,1.354-1.318,1.747l-2.437,1.442c-0.68,0.388-1.4,0.482-2.16,0.279c-0.761-0.201-1.331-0.647-1.716-1.34
			l-3.413-5.99L1403.063,422.302z"/>

			<path id="path3041-1" inkscape:connector-curvature="0" fill="#3F51B5" fill-opacity="0.3333" stroke="#FFFFFF" stroke-width="0.3297" d="
			M1430.324,404.463c-0.628-0.358-1.032-0.897-1.216-1.609c-0.184-0.714-0.1-1.391,0.256-2.026l1.308-2.287
			c0.355-0.639,0.884-1.052,1.587-1.237c0.701-0.188,1.366-0.101,1.993,0.26l5.44,3.178v-6.379c0-0.721,0.259-1.344,0.777-1.87
			c0.517-0.526,1.13-0.79,1.84-0.79h2.617c0.709,0,1.322,0.264,1.841,0.79c0.517,0.526,0.776,1.149,0.776,1.87v6.379l5.441-3.178
			c0.626-0.36,1.291-0.447,1.993-0.26c0.702,0.186,1.229,0.599,1.584,1.237l1.309,2.287c0.354,0.636,0.44,1.312,0.256,2.026
			c-0.182,0.712-0.59,1.251-1.216,1.609l-5.438,3.201l5.438,3.2c0.628,0.36,1.034,0.898,1.216,1.612
			c0.185,0.713,0.098,1.389-0.256,2.026l-1.309,2.286c-0.355,0.638-0.882,1.051-1.584,1.237s-1.367,0.1-1.993-0.261l-5.441-3.179
			v6.381c0,0.721-0.259,1.344-0.776,1.87c-0.519,0.526-1.132,0.79-1.841,0.79h-2.617c-0.71,0-1.323-0.264-1.84-0.79
			c-0.519-0.526-0.777-1.149-0.777-1.87v-6.381l-5.44,3.179c-0.627,0.36-1.292,0.447-1.993,0.261
			c-0.703-0.187-1.231-0.6-1.587-1.237l-1.308-2.286c-0.355-0.638-0.439-1.313-0.256-2.026c0.184-0.714,0.588-1.252,1.216-1.612
			l5.44-3.2L1430.324,404.463z"/>
	</g>
</g>
</svg>
