<svg xmlns="http://www.w3.org/2000/svg" width="175" height="175"><path fill="#bebebe" stroke="#bebebe" stroke-width="1.789" d="M80.247.713c-21.642 0-39.192 16.038-39.192 35.813v33.02h-2.337c-8.7 0-15.756 5.738-15.756 12.796v78.993c0 7.06 7.055 12.775 15.756 12.775h97.4c8.7 0 15.756-5.718 15.756-12.775V82.34c0-7.058-7.056-12.796-15.756-12.796h-2.338V36.527C133.78 16.75 116.23.715 94.59.715h-14.34V.713zm2.77 14.653h8.802c13.24 0 23.967 10.454 23.967 23.357v30.823H59.05V38.723C59.05 25.82 69.774 15.366 83.017 15.366h0z"/><g stroke="#fff"><path fill="#fff" stroke-width=".324" d="M37.224 119.123c-.617-.354-1.016-.884-1.197-1.584s-.097-1.368.25-1.993l1.288-2.25c.35-.63.868-1.034 1.56-1.217s1.344-.1 1.96.256l5.352 3.126v-6.275c0-.71.254-1.322.764-1.84s1.114-.776 1.81-.776h2.577a2.46 2.46 0 0 1 1.811.776 2.54 2.54 0 0 1 .765 1.841v6.275l5.352-3.126c.617-.354 1.27-.44 1.96-.256s1.212.588 1.56 1.217l1.287 2.25c.35.625.434 1.3.252 1.993s-.58 1.23-1.196 1.584l-5.353 3.148 5.353 3.148a2.46 2.46 0 0 1 1.196 1.586c.182.702.097 1.366-.252 1.993l-1.287 2.25c-.35.627-.87 1.033-1.56 1.217a2.5 2.5 0 0 1-1.961-.257l-5.352-3.126v6.277a2.53 2.53 0 0 1-.765 1.839 2.45 2.45 0 0 1-1.811.777h-2.577c-.698 0-1.3-.26-1.81-.777s-.765-1.13-.764-1.84v-6.277l-5.352 3.126a2.51 2.51 0 0 1-1.961.257c-.692-.184-1.2-.6-1.56-1.217l-1.288-2.25a2.61 2.61 0 0 1-.251-1.993c.18-.703.58-1.23 1.197-1.586l5.353-3.148-5.353-3.148z"/><path fill="#607d8b" fill-opacity=".333" stroke-width=".357" d="M84.004 136.91a2.67 2.67 0 0 1-1.717 1.34c-.76.203-1.48.108-2.16-.28l-2.438-1.442a2.71 2.71 0 0 1-1.318-1.747 2.88 2.88 0 0 1 .277-2.195l3.4-6h-6.803c-.77 0-1.433-.285-1.995-.856a2.79 2.79 0 0 1-.842-2.026v-2.882c0-.78.28-1.457.842-2.027s1.226-.856 1.995-.856h6.803l-3.4-5.99c-.384-.7-.476-1.42-.277-2.194a2.71 2.71 0 0 1 1.318-1.745l2.438-1.44c.68-.4 1.4-.484 2.16-.28a2.67 2.67 0 0 1 1.717 1.34l3.413 5.988 3.413-5.988c.385-.692.955-1.137 1.716-1.34a2.76 2.76 0 0 1 2.16.281l2.437 1.44c.682.4 1.12.972 1.318 1.745a2.88 2.88 0 0 1-.277 2.194l-3.39 5.99h6.805c.767 0 1.432.285 1.994.856s.842 1.246.842 2.027v2.882c0 .78-.28 1.456-.842 2.026s-1.228.856-1.994.856h-6.805l3.39 6c.385.69.476 1.423.277 2.195s-.64 1.354-1.318 1.747l-2.437 1.442a2.76 2.76 0 0 1-2.16.279c-.76-.2-1.33-.647-1.716-1.34l-3.413-6-3.413 6z"/><path fill="#3f51b5" fill-opacity=".333" stroke-width=".33" d="M111.265 119.07c-.628-.358-1.032-.897-1.216-1.61a2.65 2.65 0 0 1 .256-2.026l1.308-2.287c.355-.64.884-1.052 1.587-1.237s1.366-.1 1.993.26l5.44 3.178v-6.38c0-.72.26-1.344.777-1.87s1.13-.8 1.84-.8h2.617c.71 0 1.322.264 1.84.8s.776 1.15.776 1.87v6.38l5.44-3.178a2.54 2.54 0 0 1 1.993-.26 2.47 2.47 0 0 1 1.584 1.237l1.31 2.287c.354.636.44 1.312.256 2.026s-.6 1.25-1.216 1.61l-5.438 3.2 5.438 3.2c.628.36 1.034.898 1.216 1.612s.098 1.39-.256 2.026l-1.31 2.286a2.47 2.47 0 0 1-1.584 1.237 2.54 2.54 0 0 1-1.993-.261l-5.44-3.18v6.38c0 .72-.26 1.344-.776 1.87s-1.132.8-1.84.8h-2.617c-.7 0-1.323-.264-1.84-.8a2.57 2.57 0 0 1-.777-1.87v-6.38l-5.44 3.18c-.627.36-1.292.447-1.993.26a2.48 2.48 0 0 1-1.587-1.237l-1.308-2.286a2.66 2.66 0 0 1-.256-2.026 2.5 2.5 0 0 1 1.216-1.612l5.44-3.2-5.44-3.2z"/></g></svg>