<svg xmlns="http://www.w3.org/2000/svg" width="48" height="48" viewBox="63.417 63.412 48 48"><circle fill="#607D8B" cx="87.417" cy="99.079" transform="translate(0 -11.667)" r="24"/><g stroke="#FFF"><path fill="#FFF" fill-opacity=".2" stroke-width=".44" d="M85.654 66.104c-5.322 0-9.637 3.94-9.637 8.802v8.115h-.575c-2.14 0-3.874 1.41-3.874 3.145v19.414c0 1.734 1.734 3.14 3.874 3.14h23.95c2.14 0 3.875-1.405 3.875-3.14V86.167c0-1.735-1.735-3.145-3.875-3.145h-.574v-8.115c0-4.86-4.316-8.802-9.638-8.802h-3.526zm.68 3.602H88.5c3.256 0 5.893 2.569 5.893 5.74v7.576H80.44v-7.575c0-3.172 2.638-5.741 5.894-5.741h0z"/><path fill="none" stroke-width=".44" stroke-linecap="round" stroke-linejoin="round" d="M74.824 91.708h25.187c1.219 0 2.207 1.004 2.207 2.24v6.253c0 1.237-.988 2.24-2.207 2.24H74.824c-1.22 0-2.207-1.003-2.207-2.24v-6.252c0-1.238.988-2.241 2.207-2.241z"/><path fill="#FFF" stroke-width=".073" d="M74.259 96.278a.553.553 0 01-.271-.357.589.589 0 01.057-.45l.29-.508c.08-.142.197-.233.354-.275s.304-.022.443.058l1.21.707v-1.418c0-.16.057-.3.172-.416s.252-.176.41-.176h.582c.158 0 .294.059.409.176s.173.256.173.416v1.418l1.21-.707c.139-.08.287-.1.443-.058a.556.556 0 01.353.275l.292.508c.079.142.098.292.057.45s-.131.278-.271.357l-1.21.712 1.21.71c.14.08.229.2.27.359s.023.309-.056.45l-.292.508a.55.55 0 01-.353.275.572.572 0 01-.443-.058l-1.21-.707v1.418c0 .16-.058.299-.173.416s-.251.175-.41.175h-.581c-.158 0-.294-.058-.41-.175s-.173-.256-.172-.416v-1.418l-1.21.707a.572.572 0 01-.443.058.558.558 0 01-.353-.275l-.291-.508a.59.59 0 01-.057-.45.557.557 0 01.27-.358l1.21-.711-1.21-.712z"/><path fill="#607D8B" fill-opacity=".333" stroke-width=".073" d="M86.717 99.992a.55.55 0 01-.353.275.567.567 0 01-.443-.058l-.5-.296a.56.56 0 01-.271-.358.589.589 0 01.057-.45l.696-1.23h-1.396c-.158 0-.294-.058-.41-.175s-.172-.255-.172-.415v-.592c0-.16.058-.3.173-.416a.557.557 0 01.409-.175h1.396l-.696-1.23a.589.589 0 01-.057-.45.555.555 0 01.27-.356l.5-.296a.567.567 0 01.444-.058.557.557 0 01.353.274l.7 1.229.7-1.23a.55.55 0 01.353-.273.57.57 0 01.444.058l.5.296c.14.08.229.199.27.357a.588.588 0 01-.056.45l-.696 1.229h1.396c.157 0 .294.059.409.175a.574.574 0 01.173.416v.592c0 .16-.058.298-.173.415s-.252.176-.41.176h-1.395l.696 1.229a.59.59 0 01.057.45.554.554 0 01-.271.358l-.5.296a.57.57 0 01-.444.058.559.559 0 01-.352-.275l-.701-1.23-.7 1.23z"/><path fill="#3F51B5" fill-opacity=".333" stroke-width=".073" d="M94.67 96.278c-.14-.08-.23-.2-.271-.357s-.021-.31.057-.45l.29-.508a.552.552 0 01.355-.275.56.56 0 01.442.058l1.21.707v-1.418c0-.16.058-.3.173-.416s.252-.176.409-.176h.582c.158 0 .294.059.41.176a.577.577 0 01.172.416v1.418l1.21-.707c.14-.08.287-.1.443-.058s.273.134.353.275l.29.508a.59.59 0 01.058.45.55.55 0 01-.271.357l-1.21.712 1.21.71c.14.08.23.2.27.359a.589.589 0 01-.056.45l-.291.508a.55.55 0 01-.353.275.572.572 0 01-.443-.058l-1.21-.707v1.418c0 .16-.058.299-.172.416a.557.557 0 01-.41.175h-.582c-.157 0-.294-.058-.41-.175s-.172-.256-.172-.416v-1.418l-1.21.707a.57.57 0 01-.442.058.56.56 0 01-.354-.275l-.291-.508c-.078-.142-.098-.292-.057-.45s.13-.278.27-.358l1.21-.711-1.21-.712z"/></g></svg>